<svg xmlns="http://www.w3.org/2000/svg" xmlns:xlink="http://www.w3.org/1999/xlink" width="425" height="1110" viewBox="0 0 425 1110">
  <defs>
    <clipPath id="clip-path">
      <rect id="Rectangle_80" data-name="Rectangle 80" width="425" height="1110" transform="translate(6127 2930)" fill="#9063cd" stroke="#707070" stroke-width="1"/>
    </clipPath>
  </defs>
  <g id="Mask_Group_2" data-name="Mask Group 2" transform="translate(-6127 -2930)" opacity="0.303" clip-path="url(#clip-path)" style="mix-blend-mode: multiply;isolation: isolate">
    <path id="Path_234" data-name="Path 234" d="M533.266,6882.17C700.2,7129.741,1116.5,7397.941,1565.847,7508.744,1287.431,7890.17,524.291,7268.188,533.266,6882.17m1452.58,1226.154c119.339-31.648,196.083-109.164,116.824-272.562-330.108,115.15-949.888-9.018-1184.446-263.061a1083.645,1083.645,0,0,0,197.4,276.607c205.508,205.09,584,334.918,870.725,258.928Zm539.239-836.774c-145.771-241.808-381.5-383.731-640.627-466.121C1455.8,6669.554,984.175,6614.7,644.054,6200.5c27.856,45.069-64.9,636.5,772.073,834.287-143.92,153.659-493.307,23.523-634.248-72.019-171.051-114.128-289.074-294.164-326.946-498.7-32.977-180.453-49.79-407.226,16.859-542.476,102.914-210.109,210.077-111.369,317.883-5.884,401.9,429.3,807.859,462.71,1310.245,681.594,297.448,129.354,426.344,403.31,424.661,674.344Z" transform="translate(5653.998 -3884.804)" fill="#9063cd"/>
  </g>
</svg>
