<svg xmlns="http://www.w3.org/2000/svg" xmlns:xlink="http://www.w3.org/1999/xlink" width="153.518" height="46.311" viewBox="0 0 153.518 46.311">
  <defs>
    <clipPath id="clip-path">
      <rect id="Rectangle_48" data-name="Rectangle 48" width="153.518" height="46.311" fill="#2b2e34"/>
    </clipPath>
  </defs>
  <g id="Group_507" data-name="Group 507" transform="translate(-855.3 -992.765)">
    <g id="Group_501" data-name="Group 501" transform="translate(855.3 992.765)">
      <g id="Group_500" data-name="Group 500" clip-path="url(#clip-path)">
        <path id="Path_212" data-name="Path 212" d="M855.3,1011.274a3.2,3.2,0,0,1,1.066-1.752,2.848,2.848,0,0,1,1.764-.589q6.007.007,12.015,0c2.481,0,4.962.016,7.442-.01a8.886,8.886,0,0,0,2.108-.216,4.557,4.557,0,0,0,3.367-4.371c.011-2.827,0-5.652,0-8.479a2.908,2.908,0,0,1,3.115-3.093h19.882a2.825,2.825,0,0,1,3.025,2.957q.032,4.2,0,8.4a2.789,2.789,0,0,1-2.95,2.9q-9.96,0-19.921,0a4.75,4.75,0,0,0-4.933,4.854c0,2.774-.042,5.55.013,8.323a2.954,2.954,0,0,1-3.015,3q-9.98-.01-19.96,0a2.827,2.827,0,0,1-2.945-2.146,1.749,1.749,0,0,0-.079-.175Z" transform="translate(-855.3 -992.764)" fill="#2b2e34"/>
        <path id="Path_213" data-name="Path 213" d="M897.386,1036.708c-.375-.063-.751-.123-1.125-.19a8.786,8.786,0,0,1-7.154-6.068,15.026,15.026,0,0,1,.145-10.9,9.109,9.109,0,0,1,8.384-5.927,10.1,10.1,0,0,1,5.942,1.222,7.783,7.783,0,0,1,3.886,5.913c-.513,0-1,0-1.48,0-.439,0-.97.143-1.289-.055-.283-.176-.323-.734-.482-1.119a4.954,4.954,0,0,0-2.785-2.808,7.213,7.213,0,0,0-7.975,1.542,7.934,7.934,0,0,0-1.889,3.841,14.492,14.492,0,0,0,.246,6.931,6.249,6.249,0,0,0,6.209,4.925,5.9,5.9,0,0,0,6.016-3.622,9.486,9.486,0,0,0,.62-1.825c.1-.44.258-.579.706-.554.745.043,1.495.012,2.3.012-.07.386-.122.737-.2,1.081a9.334,9.334,0,0,1-3.54,5.771,9.657,9.657,0,0,1-4.936,1.751,2.9,2.9,0,0,0-.361.076Z" transform="translate(-851.564 -990.396)" fill="#2b2e34"/>
        <path id="Path_214" data-name="Path 214" d="M930.882,1027.85c0,.1,0,.207,0,.31a8.572,8.572,0,0,0,.8,3.79,3.738,3.738,0,0,0,2.388,2.06,4.194,4.194,0,0,0,5.141-2.9,9.693,9.693,0,0,0,.283-3.682,8.908,8.908,0,0,0-.657-3.008,3.84,3.84,0,0,0-1.755-1.994,4.1,4.1,0,0,0-5.781,2.334,9.917,9.917,0,0,0-.419,3.092m11.342,8.162h-2.485V1033.8c-.118.149-.162.193-.192.244a4.949,4.949,0,0,1-5.149,2.4,6.032,6.032,0,0,1-5.261-3.829,11.394,11.394,0,0,1-.379-8.781,6.171,6.171,0,0,1,7.677-4,5.062,5.062,0,0,1,2.638,1.872,2.248,2.248,0,0,0,.478.5v-8.073h2.672Z" transform="translate(-847.027 -990.335)" fill="#2b2e34"/>
        <path id="Path_215" data-name="Path 215" d="M916.942,1027.413a13.416,13.416,0,0,1-3.534.8,18.022,18.022,0,0,0-2.46.492,2.539,2.539,0,0,0,.159,4.885,5.56,5.56,0,0,0,4.819-1.359,2.609,2.609,0,0,0,1-1.7c.077-1.032.02-2.075.02-3.118m-9.749-3.088a4.773,4.773,0,0,1,3.984-5,9.739,9.739,0,0,1,5.683.271,3.954,3.954,0,0,1,2.831,4.069q.007,4.3,0,8.593v.233c.007.957.349,1.247,1.3,1.108.138-.02.274-.047.464-.08,0,.627.007,1.217-.008,1.807,0,.07-.107.171-.186.2a3.958,3.958,0,0,1-2.768.012,1.894,1.894,0,0,1-1.226-1.438c-.051-.213-.078-.431-.129-.722l-.366.36a7.143,7.143,0,0,1-6.71,2.038,4.455,4.455,0,0,1-3.631-5.276,4.616,4.616,0,0,1,4.146-4.076,42.976,42.976,0,0,1,4.684-.6c1.814-.1,1.943-1.379,1.711-2.647a1.959,1.959,0,0,0-1.294-1.486,5.9,5.9,0,0,0-4.1-.139,2.74,2.74,0,0,0-1.842,2.338c-.063.356-.18.5-.565.473-.539-.038-1.084-.008-1.627-.011-.121,0-.243-.019-.361-.029" transform="translate(-849.493 -989.778)" fill="#2b2e34"/>
        <path id="Path_216" data-name="Path 216" d="M975.82,1014.124h2.552V1026.8c.18-.172.28-.263.376-.358q3.124-3.067,6.252-6.128a.911.911,0,0,1,.563-.237c.992-.024,1.985-.011,3.1-.011l-6.1,5.949c2.145,3.321,4.284,6.631,6.469,10.013-.754,0-1.431,0-2.107,0a3.089,3.089,0,0,1-1.327-.076c-.336-.184-.5-.695-.728-1.067q-2.015-3.259-4.027-6.521c-.074-.118-.148-.235-.245-.388-.734.665-1.444,1.3-2.137,1.95a.606.606,0,0,0-.087.394c-.005,1.729,0,3.459,0,5.189v.49H975.82Z" transform="translate(-841.596 -990.336)" fill="#2b2e34"/>
        <path id="Path_217" data-name="Path 217" d="M961.788,1019.524h2.5v2.284c.147-.178.227-.266.3-.36a5.958,5.958,0,0,1,7.455-1.834,4.456,4.456,0,0,1,2.648,3.779,8.793,8.793,0,0,1,.081,1.2q.008,5.246,0,10.492v.364h-2.693v-.506c0-3.213.01-6.427-.023-9.64a7.921,7.921,0,0,0-.309-2.013,2.359,2.359,0,0,0-1.848-1.691,4.167,4.167,0,0,0-5.276,3.491,10.123,10.123,0,0,0-.158,1.768c-.017,2.7-.008,5.395-.008,8.092v.491h-2.667Z" transform="translate(-843.191 -989.779)" fill="#2b2e34"/>
      </g>
    </g>
    <path id="Path_218" data-name="Path 218" d="M943.383,1014.139v21.855h14.025V1033.4h-11.1v-19.26Z" transform="translate(10.016 2.43)" fill="#2b2e34"/>
    <g id="Group_503" data-name="Group 503" transform="translate(855.3 992.765)">
      <g id="Group_502" data-name="Group 502" clip-path="url(#clip-path)">
        <path id="Path_219" data-name="Path 219" d="M921.3,1019.527H923.8v2.542c1.244-1.906,2.739-3.281,5.233-2.976v2.85a11.82,11.82,0,0,0-1.516.009,4.053,4.053,0,0,0-3.566,4.3c-.01,2.9,0,5.8,0,8.706v.483H921.3Z" transform="translate(-847.795 -989.776)" fill="#2b2e34"/>
      </g>
    </g>
    <rect id="Rectangle_50" data-name="Rectangle 50" width="2.643" height="15.919" transform="translate(968.621 1022.523)" fill="#2b2e34"/>
    <rect id="Rectangle_51" data-name="Rectangle 51" width="2.647" height="3.001" transform="translate(968.616 1016.563)" fill="#2b2e34"/>
    <g id="Group_505" data-name="Group 505" transform="translate(855.3 992.765)">
      <g id="Group_504" data-name="Group 504" clip-path="url(#clip-path)">
        <path id="Path_220" data-name="Path 220" d="M991.2,1018.593a2.01,2.01,0,1,0-1.963-2.018,1.964,1.964,0,0,0,1.963,2.018m.008.4a2.409,2.409,0,1,1,2.436-2.418,2.392,2.392,0,0,1-2.436,2.418" transform="translate(-840.125 -990.33)" fill="#2b2e34"/>
        <path id="Path_221" data-name="Path 221" d="M990.563,1016.326a4.277,4.277,0,0,0,.851-.08.389.389,0,0,0-.023-.747,4.012,4.012,0,0,0-.828-.018Zm-.018.384v1.137h-.412V1015.1c.444,0,.877-.025,1.307.007a.693.693,0,0,1,.715.634.75.75,0,0,1-.529.873l-.16.065.734,1.154a.441.441,0,0,1-.628-.241c-.107-.218-.266-.412-.372-.631a.465.465,0,0,0-.655-.248" transform="translate(-839.968 -990.226)" fill="#2b2e34"/>
      </g>
    </g>
  </g>
</svg>
