<svg xmlns="http://www.w3.org/2000/svg" xmlns:xlink="http://www.w3.org/1999/xlink" width="152.813" height="46.099" viewBox="0 0 152.813 46.099">
  <defs>
    <clipPath id="clip-path">
      <rect id="Rectangle_48" data-name="Rectangle 48" width="152.813" height="46.099" fill="#fff"/>
    </clipPath>
  </defs>
  <g id="Group_506" data-name="Group 506" transform="translate(-855.3 -992.765)">
    <g id="Group_501" data-name="Group 501" transform="translate(855.3 992.765)">
      <g id="Group_500" data-name="Group 500" clip-path="url(#clip-path)">
        <path id="Path_212" data-name="Path 212" d="M855.3,1011.189a3.185,3.185,0,0,1,1.061-1.744,2.835,2.835,0,0,1,1.756-.586q5.98.007,11.96,0c2.47,0,4.939.016,7.408-.01a8.85,8.85,0,0,0,2.1-.215,4.536,4.536,0,0,0,3.351-4.351c.011-2.814,0-5.626,0-8.44a2.9,2.9,0,0,1,3.1-3.078H905.83a2.812,2.812,0,0,1,3.011,2.943q.032,4.181,0,8.362a2.776,2.776,0,0,1-2.937,2.889q-9.914,0-19.829,0a4.728,4.728,0,0,0-4.91,4.831c0,2.761-.042,5.524.013,8.284a2.94,2.94,0,0,1-3,2.984q-9.934-.01-19.868,0a2.814,2.814,0,0,1-2.931-2.136,1.735,1.735,0,0,0-.079-.174Z" transform="translate(-855.3 -992.764)" fill="#fff"/>
        <path id="Path_213" data-name="Path 213" d="M897.344,1036.6c-.374-.063-.747-.122-1.12-.19a8.746,8.746,0,0,1-7.122-6.04,14.957,14.957,0,0,1,.144-10.848,9.067,9.067,0,0,1,8.346-5.9,10.054,10.054,0,0,1,5.914,1.216,7.747,7.747,0,0,1,3.868,5.886c-.511,0-.992,0-1.473,0-.437,0-.966.142-1.283-.054-.282-.175-.321-.731-.48-1.114a4.933,4.933,0,0,0-2.773-2.795,7.181,7.181,0,0,0-7.939,1.535,7.9,7.9,0,0,0-1.88,3.823,14.428,14.428,0,0,0,.245,6.9,6.22,6.22,0,0,0,6.18,4.9,5.87,5.87,0,0,0,5.989-3.605,9.442,9.442,0,0,0,.617-1.817c.1-.438.257-.576.7-.551.742.043,1.488.012,2.294.012-.07.385-.122.734-.2,1.076a9.291,9.291,0,0,1-3.524,5.745,9.613,9.613,0,0,1-4.913,1.743,2.875,2.875,0,0,0-.359.075Z" transform="translate(-851.732 -990.503)" fill="#fff"/>
        <path id="Path_214" data-name="Path 214" d="M930.869,1027.787c0,.1,0,.206,0,.308a8.534,8.534,0,0,0,.8,3.772,3.721,3.721,0,0,0,2.377,2.051,4.174,4.174,0,0,0,5.117-2.889,9.648,9.648,0,0,0,.281-3.665,8.866,8.866,0,0,0-.654-2.994,3.822,3.822,0,0,0-1.747-1.984,4.081,4.081,0,0,0-5.755,2.324,9.871,9.871,0,0,0-.417,3.078m11.29,8.125h-2.473v-2.2c-.118.149-.161.192-.191.243a4.926,4.926,0,0,1-5.125,2.393,6,6,0,0,1-5.237-3.811,11.342,11.342,0,0,1-.377-8.74,6.143,6.143,0,0,1,7.641-3.984,5.039,5.039,0,0,1,2.626,1.864,2.232,2.232,0,0,0,.476.5v-8.036h2.659Z" transform="translate(-847.399 -990.444)" fill="#fff"/>
        <path id="Path_215" data-name="Path 215" d="M916.893,1027.375a13.359,13.359,0,0,1-3.518.8,17.954,17.954,0,0,0-2.449.49,2.527,2.527,0,0,0,.159,4.862,5.534,5.534,0,0,0,4.8-1.352,2.6,2.6,0,0,0,.991-1.695c.077-1.028.02-2.065.02-3.1m-9.7-3.074a4.752,4.752,0,0,1,3.966-4.979,9.694,9.694,0,0,1,5.657.269,3.936,3.936,0,0,1,2.818,4.051q.007,4.277,0,8.554v.232c.007.952.347,1.242,1.3,1.1.137-.02.273-.047.462-.08,0,.624.007,1.212-.008,1.8,0,.07-.106.171-.185.2a3.94,3.94,0,0,1-2.755.012,1.885,1.885,0,0,1-1.22-1.431c-.051-.212-.078-.429-.129-.718l-.365.358a7.11,7.11,0,0,1-6.679,2.029,4.435,4.435,0,0,1-3.614-5.251,4.6,4.6,0,0,1,4.127-4.057,42.765,42.765,0,0,1,4.663-.594c1.806-.1,1.935-1.372,1.7-2.635a1.95,1.95,0,0,0-1.288-1.479,5.872,5.872,0,0,0-4.076-.139,2.728,2.728,0,0,0-1.834,2.327c-.063.355-.18.5-.562.471-.537-.038-1.079-.008-1.62-.011-.121,0-.242-.019-.359-.029" transform="translate(-849.754 -989.912)" fill="#fff"/>
        <path id="Path_216" data-name="Path 216" d="M975.82,1014.124h2.54v12.617c.18-.171.278-.262.375-.356q3.11-3.053,6.224-6.1a.907.907,0,0,1,.561-.236c.988-.024,1.976-.011,3.085-.011l-6.067,5.921c2.135,3.306,4.265,6.6,6.44,9.967-.75,0-1.424,0-2.1,0a3.073,3.073,0,0,1-1.32-.075c-.335-.183-.5-.692-.725-1.062q-2.005-3.244-4.009-6.491c-.073-.118-.147-.234-.244-.386-.731.662-1.438,1.292-2.127,1.941a.6.6,0,0,0-.086.392c-.005,1.722,0,3.443,0,5.165v.488H975.82Z" transform="translate(-842.212 -990.445)" fill="#fff"/>
        <path id="Path_217" data-name="Path 217" d="M961.788,1019.522h2.485v2.274c.146-.177.226-.265.3-.358a5.931,5.931,0,0,1,7.421-1.826,4.436,4.436,0,0,1,2.636,3.761,8.754,8.754,0,0,1,.081,1.191q.008,5.221,0,10.444v.363H972.03v-.5c0-3.2.01-6.4-.023-9.6a7.894,7.894,0,0,0-.308-2,2.348,2.348,0,0,0-1.839-1.683,4.148,4.148,0,0,0-5.251,3.475,10.08,10.08,0,0,0-.157,1.76c-.017,2.685-.008,5.37-.008,8.055v.489h-2.655Z" transform="translate(-843.736 -989.913)" fill="#fff"/>
      </g>
    </g>
    <path id="Path_218" data-name="Path 218" d="M943.383,1014.139v21.755h13.961v-2.583H946.294v-19.172Z" transform="translate(9.565 2.321)" fill="#fff"/>
    <g id="Group_503" data-name="Group 503" transform="translate(855.3 992.765)">
      <g id="Group_502" data-name="Group 502" clip-path="url(#clip-path)">
        <path id="Path_219" data-name="Path 219" d="M921.3,1019.524h2.483v2.53c1.238-1.9,2.726-3.266,5.209-2.962v2.837a11.778,11.778,0,0,0-1.509.009,4.035,4.035,0,0,0-3.55,4.281c-.01,2.889,0,5.777,0,8.666v.481H921.3Z" transform="translate(-848.132 -989.91)" fill="#fff"/>
      </g>
    </g>
    <rect id="Rectangle_50" data-name="Rectangle 50" width="2.631" height="15.846" transform="translate(968.101 1022.386)" fill="#fff"/>
    <rect id="Rectangle_51" data-name="Rectangle 51" width="2.635" height="2.988" transform="translate(968.096 1016.454)" fill="#fff"/>
    <g id="Group_505" data-name="Group 505" transform="translate(855.3 992.765)">
      <g id="Group_504" data-name="Group 504" clip-path="url(#clip-path)">
        <path id="Path_220" data-name="Path 220" d="M991.188,1018.573a2,2,0,1,0-1.954-2.009,1.955,1.955,0,0,0,1.954,2.009m.008.4a2.4,2.4,0,1,1,2.424-2.407,2.381,2.381,0,0,1-2.424,2.407" transform="translate(-840.807 -990.439)" fill="#fff"/>
        <path id="Path_221" data-name="Path 221" d="M990.561,1016.32a4.251,4.251,0,0,0,.847-.08.387.387,0,0,0-.023-.744,4,4,0,0,0-.824-.018Zm-.018.382v1.132h-.41V1015.1c.442,0,.874-.024,1.3.007a.69.69,0,0,1,.712.631.747.747,0,0,1-.527.869l-.16.064.73,1.149a.439.439,0,0,1-.625-.24c-.106-.217-.265-.41-.37-.629a.463.463,0,0,0-.652-.247" transform="translate(-840.658 -990.34)" fill="#fff"/>
      </g>
    </g>
  </g>
</svg>
