<svg xmlns="http://www.w3.org/2000/svg" width="13.619" height="12.106" viewBox="0 0 13.619 12.106">
  <path id="Icon_awesome-external-link-alt" data-name="Icon awesome-external-link-alt" d="M13.619.567V3.594a.568.568,0,0,1-.969.4l-.844-.844L6.048,8.908a.567.567,0,0,1-.8,0l-.535-.535a.567.567,0,0,1,0-.8l5.758-5.758L9.625.969a.568.568,0,0,1,.4-.969h3.026A.567.567,0,0,1,13.619.567Zm-4,5.835-.378.378a.567.567,0,0,0-.166.4v3.41H1.513V3.026H7.755a.568.568,0,0,0,.4-.166l.378-.378a.567.567,0,0,0-.4-.969h-7A1.135,1.135,0,0,0,0,2.648v8.323a1.135,1.135,0,0,0,1.135,1.135H9.458a1.135,1.135,0,0,0,1.135-1.135V6.8A.567.567,0,0,0,9.624,6.4Z" fill="#4ab590"/>
</svg>
