<svg xmlns="http://www.w3.org/2000/svg" width="31.21" height="31.408" viewBox="0 0 31.21 31.408">
  <g id="Group_509" data-name="Group 509" transform="translate(-619 -5324)">
    <path id="Path_222" data-name="Path 222" d="M611.642,1422.154a2.279,2.279,0,0,1,2.307-2.25h26.6a2.279,2.279,0,0,1,2.307,2.25v26.909a2.278,2.278,0,0,1-2.307,2.249h-26.6a2.279,2.279,0,0,1-2.307-2.249v-26.909Z" transform="translate(7.358 3904.096)" fill="#0078bd"/>
    <path id="Path_223" data-name="Path 223" d="M710.827,1552.055v-14.182h-4.714v14.182h4.714Zm-2.356-16.118a2.626,2.626,0,1,0-.031,0h.031Zm4.965,16.118h4.714v-7.919a3.23,3.23,0,0,1,.155-1.15,2.58,2.58,0,0,1,2.419-1.724c1.705,0,2.388,1.3,2.388,3.207v7.586h4.714v-8.132c0-4.356-2.325-6.383-5.427-6.383a4.7,4.7,0,0,0-4.28,2.389h.031v-2.056h-4.714c.061,1.331,0,14.182,0,14.182Z" transform="translate(-82.366 3798.237)" fill="#fff"/>
  </g>
</svg>
