<svg xmlns="http://www.w3.org/2000/svg" width="165.616" height="40" viewBox="0 0 165.616 40">
  <g id="Group_609" data-name="Group 609" transform="translate(121.395 283.615)">
    <g id="Group_607" data-name="Group 607" transform="translate(-121.395 -283.615)">
      <g id="Group_606" data-name="Group 606">
        <circle id="Ellipse_1" data-name="Ellipse 1" cx="20" cy="20" r="20" transform="translate(0 0)" fill="#edd9f5"/>
        <g id="Group_605" data-name="Group 605" transform="translate(3.333)">
          <path id="Path_222" data-name="Path 222" d="M-84.728-262.554c-2.084-3.456-5.453-5.484-9.156-6.661-6.127-1.942-12.867-2.726-17.728-8.646.4.644-.927,9.1,11.035,11.924-2.056,2.2-7.05.336-9.064-1.03a10.956,10.956,0,0,1-4.673-7.127c-.472-2.579-.712-5.82.241-7.753,1.471-3,3-1.592,4.544-.085,5.744,6.136,11.546,6.614,18.726,9.742a10.076,10.076,0,0,1,6.069,9.637Z" transform="translate(114.729 283.615)" fill="#402959"/>
          <path id="Path_223" data-name="Path 223" d="M-85.393-225.229c-4.1,1.086-9.507-.77-12.444-3.7a15.483,15.483,0,0,1-2.822-3.953c3.352,3.63,12.21,5.4,16.928,3.759,1.133,2.335.036,3.443-1.669,3.9Z" transform="translate(107.694 258.249)" fill="#402959"/>
          <path id="Path_224" data-name="Path 224" d="M-111.663-252.621c2.386,3.538,8.336,7.371,14.758,8.954-3.979,5.452-14.886-3.438-14.758-8.954" transform="translate(113.196 268.118)" fill="#402959"/>
        </g>
      </g>
    </g>
    <g id="Group_608" data-name="Group 608" transform="translate(-71.395 -274.072)">
      <path id="Path_225" data-name="Path 225" d="M-14.653-244.186v-14.772h-6.172a.573.573,0,0,1-.571-.571v-3.514a.573.573,0,0,1,.571-.572H-3.51a.573.573,0,0,1,.571.572v3.514a.573.573,0,0,1-.571.571H-9.681v14.772a.574.574,0,0,1-.572.572h-3.828A.573.573,0,0,1-14.653-244.186Z" transform="translate(21.395 264.072)" fill="#402959"/>
      <path id="Path_226" data-name="Path 226" d="M29.479-249.93H25.25v5.972a.316.316,0,0,1-.343.343H20.621a.308.308,0,0,1-.314-.343v-19.314c0-.228.115-.342.314-.342h9.686c4.657,0,7.657,2.885,7.657,6.857a6.337,6.337,0,0,1-2.343,5.057c1.2,1.572,1.457,3.514,2.628,3.628.458.028.571.172.571.6v3.257c0,.743-.371.829-.857.829C31.25-243.387,33.278-249.93,29.479-249.93Zm.857-4.657c1.628,0,2.658-.715,2.658-2.172,0-1.486-1.029-2.2-2.658-2.2H25.25v4.372Z" transform="translate(0.544 264.072)" fill="#402959"/>
      <path id="Path_227" data-name="Path 227" d="M63.267-244.186v-18.857a.573.573,0,0,1,.571-.572h3.8a.573.573,0,0,1,.572.572v18.857a.573.573,0,0,1-.572.572h-3.8A.573.573,0,0,1,63.267-244.186Z" transform="translate(-20.936 264.072)" fill="#402959"/>
      <path id="Path_228" data-name="Path 228" d="M81.061-244.186v-18.857a.573.573,0,0,1,.571-.572h4.057a.62.62,0,0,1,.514.229l10.114,12.114v-11.771a.573.573,0,0,1,.572-.572h3.829a.573.573,0,0,1,.571.572v18.857a.573.573,0,0,1-.571.572H96.66a.717.717,0,0,1-.514-.229L86-255.872v11.686a.573.573,0,0,1-.571.572h-3.8A.573.573,0,0,1,81.061-244.186Z" transform="translate(-29.833 264.072)" fill="#402959"/>
      <path id="Path_229" data-name="Path 229" d="M129.426-244.186v-18.857a.573.573,0,0,1,.571-.572h15.515a.573.573,0,0,1,.571.572v3.514a.573.573,0,0,1-.571.571H134.368v2.972h8.943a.573.573,0,0,1,.572.572v3.228a.574.574,0,0,1-.572.572h-8.943v3.342h11.143a.573.573,0,0,1,.571.572v3.514a.573.573,0,0,1-.571.572H130A.573.573,0,0,1,129.426-244.186Z" transform="translate(-54.015 264.072)" fill="#402959"/>
      <path id="Path_230" data-name="Path 230" d="M166.693-254.1c0-6.314,4.286-10.428,10.8-10.428s10.771,4.114,10.771,10.428c0,6.342-4.258,10.486-10.771,10.486S166.693-247.758,166.693-254.1Zm16.6,0a5.437,5.437,0,0,0-5.8-5.772,5.467,5.467,0,0,0-5.857,5.772,5.5,5.5,0,0,0,5.857,5.828A5.466,5.466,0,0,0,183.293-254.1Z" transform="translate(-72.649 264.529)" fill="#402959"/>
    </g>
  </g>
</svg>
