<svg xmlns="http://www.w3.org/2000/svg" width="19.347" height="19.347" viewBox="0 0 19.347 19.347"><path d="M269.911,257.947c-.322,0-.583,2.551-.583,2.873a8.505,8.505,0,1,1-2.011-5.494l-2.085-.4a.583.583,0,0,0-.221,1.145l3.514.677h.007l.039.006.013,0,.051,0h.048l.029,0,.019,0,.031-.006.013,0h0l.028-.008.019-.006.024-.009.022-.009.02-.01.024-.012.018-.01.024-.015.017-.011.022-.016.016-.013.019-.017.017-.016.016-.017.017-.019.013-.016.017-.022.01-.014.017-.026,0,0a.58.58,0,0,0,.029-.057l.01-.023.007-.019c0-.009.007-.018.009-.028l.005-.019c0-.01.005-.02.007-.03l0-.008s0-.007,0-.011,0-.024.005-.036,0-.014,0-.021v-.009l.188-3.25a.583.583,0,0,0-1.164-.067l-.093,1.613a9.7,9.7,0,0,0-1.541-1.435,9.674,9.674,0,1,0,3.887,7.753C270.494,260.5,270.233,257.947,269.911,257.947Z" transform="translate(-251.147 -251.146)"/></svg>