<svg xmlns="http://www.w3.org/2000/svg" width="1920" height="992" viewBox="0 0 1920 992"><g transform="translate(0 -87)" opacity="0.98"><rect width="1920" height="992" transform="translate(0 87)" fill="#131e29"/><path d="M717.546-414.509H724.5c-5.072-5.13-9.992-10.277-14.808-15.494q3.878,7.773,7.853,15.494m254.961,0h451.641c37.657-23.542,71.891-55.254,101.7-96.094C959.57-650.243,434.935-988.236,224.553-1300.236c-7.168,308.351,376.607,736.181,747.953,885.727m-658.065-992a954.585,954.585,0,0,0,223.424,207.851c177.619,120.407,617.929,284.409,799.3,90.763-294.146-69.513-497.21-177.634-637.825-298.613Zm1582.37,0c9.862,3.049,19.776,6.149,29.6,9.261v-9.261Z" transform="translate(-111.455 1493.509)" fill="#3f2a56" opacity="0.436"/></g></svg>