<svg id="Layer_1" data-name="Layer 1" xmlns="http://www.w3.org/2000/svg" viewBox="0 0 26 25"><g id="Group_1439" data-name="Group 1439"><rect id="Rectangle_26039" data-name="Rectangle 26039" width="26" height="25" rx="2" fill="#1ca1f2"/><path id="Icon_awesome-twitter" data-name="Icon awesome-twitter" d="M754.24,584c0,.14,0,.27,0,.41a8.89,8.89,0,0,1-8.82,8.94h-.12a9,9,0,0,1-4.83-1.41,6.45,6.45,0,0,0,.76,0,6.28,6.28,0,0,0,3.9-1.35,3.15,3.15,0,0,1-2.94-2.17,4,4,0,0,0,.59,0,3.31,3.31,0,0,0,.83-.1,3.16,3.16,0,0,1-2.52-3.08v-.05a3.13,3.13,0,0,0,1.42.4,3.14,3.14,0,0,1-1-4.2,8.93,8.93,0,0,0,6.48,3.29A3.53,3.53,0,0,1,748,584a3.15,3.15,0,0,1,5.44-2.15,6.17,6.17,0,0,0,2-.76,3.08,3.08,0,0,1-1.38,1.73,6.38,6.38,0,0,0,1.81-.48,6.75,6.75,0,0,1-1.58,1.62Z" transform="translate(-735.15 -574.62)" fill="#fff"/></g></svg>