<svg xmlns="http://www.w3.org/2000/svg" width="25" height="25" viewBox="0 0 25 25"><path d="M84.5,436A12.5,12.5,0,1,0,97,448.5,12.5,12.5,0,0,0,84.5,436Zm4.97,9.951c0,.11.008.22.008.332a7.294,7.294,0,0,1-11.228,6.145,5.271,5.271,0,0,0,.612.036,5.145,5.145,0,0,0,3.185-1.1,2.567,2.567,0,0,1-2.4-1.78,2.59,2.59,0,0,0,1.159-.045,2.565,2.565,0,0,1-2.057-2.514v-.033a2.555,2.555,0,0,0,1.162.321,2.566,2.566,0,0,1-.794-3.424,7.282,7.282,0,0,0,5.286,2.68,2.566,2.566,0,0,1,4.37-2.339,5.132,5.132,0,0,0,1.629-.622,2.577,2.577,0,0,1-1.127,1.419,5.148,5.148,0,0,0,1.473-.4A5.221,5.221,0,0,1,89.47,445.951Z" transform="translate(-72 -436)" fill="#1b214d"/></svg>